<mxfile host="app.diagrams.net" modified="2022-11-09T05:11:51.609Z" agent="5.0 (Windows NT 10.0; Win64; x64) AppleWebKit/537.36 (KHTML, like Gecko) Chrome/107.0.0.0 Safari/537.36" etag="Jfm7TuwiwmcNeGBa4189" version="20.5.3" type="github">
  <diagram id="0lNNR_LnOzxrWG5p-_cW" name="Page-1">
    <mxGraphModel dx="1550" dy="835" grid="1" gridSize="10" guides="1" tooltips="1" connect="1" arrows="1" fold="1" page="1" pageScale="1" pageWidth="850" pageHeight="1100" math="0" shadow="0">
      <root>
        <mxCell id="0" />
        <mxCell id="1" parent="0" />
        <mxCell id="FAGZXTw5lbrIUs-HKUqR-1" value="事件数据处理" style="rounded=1;whiteSpace=wrap;html=1;" parent="1" vertex="1">
          <mxGeometry x="10" y="140" width="120" height="60" as="geometry" />
        </mxCell>
        <mxCell id="FAGZXTw5lbrIUs-HKUqR-2" value="" style="endArrow=classic;html=1;rounded=0;exitX=1;exitY=0.5;exitDx=0;exitDy=0;entryX=0;entryY=0.5;entryDx=0;entryDy=0;" parent="1" source="FAGZXTw5lbrIUs-HKUqR-1" target="FAGZXTw5lbrIUs-HKUqR-3" edge="1">
          <mxGeometry width="50" height="50" relative="1" as="geometry">
            <mxPoint x="150" y="200" as="sourcePoint" />
            <mxPoint x="200" y="140" as="targetPoint" />
          </mxGeometry>
        </mxCell>
        <mxCell id="FAGZXTw5lbrIUs-HKUqR-3" value="聚合成图片" style="rounded=1;whiteSpace=wrap;html=1;" parent="1" vertex="1">
          <mxGeometry x="200" y="120" width="80" height="40" as="geometry" />
        </mxCell>
        <mxCell id="FAGZXTw5lbrIUs-HKUqR-4" value="" style="endArrow=classic;html=1;rounded=0;exitX=1;exitY=0.5;exitDx=0;exitDy=0;entryX=0;entryY=0.5;entryDx=0;entryDy=0;" parent="1" source="FAGZXTw5lbrIUs-HKUqR-1" target="FAGZXTw5lbrIUs-HKUqR-5" edge="1">
          <mxGeometry width="50" height="50" relative="1" as="geometry">
            <mxPoint x="160" y="209.99999999999994" as="sourcePoint" />
            <mxPoint x="180" y="200" as="targetPoint" />
          </mxGeometry>
        </mxCell>
        <mxCell id="FAGZXTw5lbrIUs-HKUqR-40" style="edgeStyle=orthogonalEdgeStyle;rounded=0;orthogonalLoop=1;jettySize=auto;html=1;exitX=0.5;exitY=1;exitDx=0;exitDy=0;fontSize=11;" parent="1" source="FAGZXTw5lbrIUs-HKUqR-5" edge="1">
          <mxGeometry relative="1" as="geometry">
            <mxPoint x="310" y="250" as="targetPoint" />
            <Array as="points">
              <mxPoint x="240" y="250" />
            </Array>
          </mxGeometry>
        </mxCell>
        <mxCell id="FAGZXTw5lbrIUs-HKUqR-5" value="直接处理" style="rounded=1;whiteSpace=wrap;html=1;" parent="1" vertex="1">
          <mxGeometry x="200" y="180" width="80" height="40" as="geometry" />
        </mxCell>
        <mxCell id="FAGZXTw5lbrIUs-HKUqR-7" value="" style="shape=curlyBracket;whiteSpace=wrap;html=1;rounded=1;labelPosition=left;verticalLabelPosition=middle;align=right;verticalAlign=middle;size=0.5;" parent="1" vertex="1">
          <mxGeometry x="470" y="41.25" width="40" height="97.5" as="geometry" />
        </mxCell>
        <mxCell id="FAGZXTw5lbrIUs-HKUqR-20" style="edgeStyle=orthogonalEdgeStyle;rounded=0;orthogonalLoop=1;jettySize=auto;html=1;fontSize=11;" parent="1" source="FAGZXTw5lbrIUs-HKUqR-9" edge="1">
          <mxGeometry relative="1" as="geometry">
            <mxPoint x="480" y="90" as="targetPoint" />
          </mxGeometry>
        </mxCell>
        <mxCell id="FAGZXTw5lbrIUs-HKUqR-9" value="切片" style="rounded=0;whiteSpace=wrap;html=1;fontSize=11;" parent="1" vertex="1">
          <mxGeometry x="320" y="80" width="50" height="20" as="geometry" />
        </mxCell>
        <mxCell id="FAGZXTw5lbrIUs-HKUqR-18" style="edgeStyle=orthogonalEdgeStyle;rounded=0;orthogonalLoop=1;jettySize=auto;html=1;exitX=1;exitY=0.5;exitDx=0;exitDy=0;fontSize=11;" parent="1" source="FAGZXTw5lbrIUs-HKUqR-10" edge="1">
          <mxGeometry relative="1" as="geometry">
            <mxPoint x="400" y="120" as="targetPoint" />
          </mxGeometry>
        </mxCell>
        <mxCell id="FAGZXTw5lbrIUs-HKUqR-10" value="去噪" style="rounded=0;whiteSpace=wrap;html=1;fontSize=11;" parent="1" vertex="1">
          <mxGeometry x="320" y="110" width="50" height="20" as="geometry" />
        </mxCell>
        <mxCell id="FAGZXTw5lbrIUs-HKUqR-16" value="" style="edgeStyle=orthogonalEdgeStyle;rounded=0;orthogonalLoop=1;jettySize=auto;html=1;fontSize=11;" parent="1" source="FAGZXTw5lbrIUs-HKUqR-11" edge="1">
          <mxGeometry relative="1" as="geometry">
            <mxPoint x="400" y="160" as="targetPoint" />
            <Array as="points">
              <mxPoint x="400" y="160" />
            </Array>
          </mxGeometry>
        </mxCell>
        <mxCell id="FAGZXTw5lbrIUs-HKUqR-11" value="极性" style="rounded=0;whiteSpace=wrap;html=1;fontSize=11;" parent="1" vertex="1">
          <mxGeometry x="320" y="150" width="50" height="20" as="geometry" />
        </mxCell>
        <mxCell id="FAGZXTw5lbrIUs-HKUqR-12" value="加权" style="rounded=0;whiteSpace=wrap;html=1;fontSize=11;" parent="1" vertex="1">
          <mxGeometry x="320" y="188.75" width="50" height="20" as="geometry" />
        </mxCell>
        <mxCell id="FAGZXTw5lbrIUs-HKUqR-14" value="顺序衰减" style="whiteSpace=wrap;html=1;fontSize=11;rounded=0;" parent="1" vertex="1">
          <mxGeometry x="410" y="174.38" width="65" height="20" as="geometry" />
        </mxCell>
        <mxCell id="FAGZXTw5lbrIUs-HKUqR-17" value="±1/w/o" style="whiteSpace=wrap;html=1;fontSize=11;rounded=0;" parent="1" vertex="1">
          <mxGeometry x="400" y="150" width="65" height="20" as="geometry" />
        </mxCell>
        <mxCell id="FAGZXTw5lbrIUs-HKUqR-19" value="静止假设" style="whiteSpace=wrap;html=1;fontSize=11;rounded=0;" parent="1" vertex="1">
          <mxGeometry x="400" y="110" width="65" height="20" as="geometry" />
        </mxCell>
        <mxCell id="FAGZXTw5lbrIUs-HKUqR-21" value="" style="shape=curlyBracket;whiteSpace=wrap;html=1;rounded=1;labelPosition=left;verticalLabelPosition=middle;align=right;verticalAlign=middle;size=0.5;" parent="1" vertex="1">
          <mxGeometry x="280" y="85.63" width="40" height="114.37" as="geometry" />
        </mxCell>
        <mxCell id="FAGZXTw5lbrIUs-HKUqR-22" value="灰度形式" style="whiteSpace=wrap;html=1;fontSize=11;rounded=0;" parent="1" vertex="1">
          <mxGeometry x="510" y="30" width="65" height="20" as="geometry" />
        </mxCell>
        <mxCell id="FAGZXTw5lbrIUs-HKUqR-23" value="生成方式" style="whiteSpace=wrap;html=1;fontSize=11;rounded=0;" parent="1" vertex="1">
          <mxGeometry x="510" y="130" width="65" height="20" as="geometry" />
        </mxCell>
        <mxCell id="FAGZXTw5lbrIUs-HKUqR-24" value="" style="shape=curlyBracket;whiteSpace=wrap;html=1;rounded=1;labelPosition=left;verticalLabelPosition=middle;align=right;verticalAlign=middle;size=0.5;" parent="1" vertex="1">
          <mxGeometry x="575" y="20.63" width="40" height="38.75" as="geometry" />
        </mxCell>
        <mxCell id="FAGZXTw5lbrIUs-HKUqR-34" style="edgeStyle=orthogonalEdgeStyle;rounded=0;orthogonalLoop=1;jettySize=auto;html=1;exitX=1;exitY=0.5;exitDx=0;exitDy=0;entryX=0;entryY=0.5;entryDx=0;entryDy=0;fontSize=11;" parent="1" source="FAGZXTw5lbrIUs-HKUqR-25" target="FAGZXTw5lbrIUs-HKUqR-33" edge="1">
          <mxGeometry relative="1" as="geometry" />
        </mxCell>
        <mxCell id="FAGZXTw5lbrIUs-HKUqR-25" value="1~255" style="whiteSpace=wrap;html=1;fontSize=11;rounded=0;" parent="1" vertex="1">
          <mxGeometry x="615" y="10" width="65" height="20" as="geometry" />
        </mxCell>
        <mxCell id="FAGZXTw5lbrIUs-HKUqR-35" style="edgeStyle=orthogonalEdgeStyle;rounded=0;orthogonalLoop=1;jettySize=auto;html=1;exitX=1;exitY=0.5;exitDx=0;exitDy=0;fontSize=11;" parent="1" source="FAGZXTw5lbrIUs-HKUqR-26" edge="1">
          <mxGeometry relative="1" as="geometry">
            <mxPoint x="709.9999999999998" y="59.86206896551721" as="targetPoint" />
          </mxGeometry>
        </mxCell>
        <mxCell id="FAGZXTw5lbrIUs-HKUqR-26" value="时间戳" style="whiteSpace=wrap;html=1;fontSize=11;rounded=0;" parent="1" vertex="1">
          <mxGeometry x="615" y="50" width="65" height="20" as="geometry" />
        </mxCell>
        <mxCell id="FAGZXTw5lbrIUs-HKUqR-28" value="" style="shape=curlyBracket;whiteSpace=wrap;html=1;rounded=1;labelPosition=left;verticalLabelPosition=middle;align=right;verticalAlign=middle;size=0.5;" parent="1" vertex="1">
          <mxGeometry x="575" y="105.63" width="40" height="68.75" as="geometry" />
        </mxCell>
        <mxCell id="FAGZXTw5lbrIUs-HKUqR-30" value="数目决定" style="whiteSpace=wrap;html=1;fontSize=11;rounded=0;" parent="1" vertex="1">
          <mxGeometry x="615" y="91.25" width="65" height="20" as="geometry" />
        </mxCell>
        <mxCell id="FAGZXTw5lbrIUs-HKUqR-31" value="周期决定" style="whiteSpace=wrap;html=1;fontSize=11;rounded=0;" parent="1" vertex="1">
          <mxGeometry x="615" y="130" width="65" height="20" as="geometry" />
        </mxCell>
        <mxCell id="FAGZXTw5lbrIUs-HKUqR-32" value="周期+数目" style="whiteSpace=wrap;html=1;fontSize=11;rounded=0;" parent="1" vertex="1">
          <mxGeometry x="615" y="168.75" width="65" height="20" as="geometry" />
        </mxCell>
        <mxCell id="FAGZXTw5lbrIUs-HKUqR-33" value="贡献度" style="whiteSpace=wrap;html=1;fontSize=11;rounded=0;" parent="1" vertex="1">
          <mxGeometry x="710" y="10" width="65" height="20" as="geometry" />
        </mxCell>
        <mxCell id="FAGZXTw5lbrIUs-HKUqR-36" value="SAE/TS" style="whiteSpace=wrap;html=1;fontSize=11;rounded=0;" parent="1" vertex="1">
          <mxGeometry x="710" y="50" width="65" height="20" as="geometry" />
        </mxCell>
        <mxCell id="FAGZXTw5lbrIUs-HKUqR-37" value="" style="shape=curlyBracket;whiteSpace=wrap;html=1;rounded=1;labelPosition=left;verticalLabelPosition=middle;align=right;verticalAlign=middle;size=0.5;" parent="1" vertex="1">
          <mxGeometry x="370" y="180" width="40" height="38.75" as="geometry" />
        </mxCell>
        <mxCell id="FAGZXTw5lbrIUs-HKUqR-38" value="中心衰减" style="whiteSpace=wrap;html=1;fontSize=11;rounded=0;" parent="1" vertex="1">
          <mxGeometry x="410" y="208.75" width="65" height="20" as="geometry" />
        </mxCell>
        <mxCell id="FAGZXTw5lbrIUs-HKUqR-41" value="无额外处理" style="rounded=0;whiteSpace=wrap;html=1;fontSize=11;" parent="1" vertex="1">
          <mxGeometry x="310" y="240" width="100" height="20" as="geometry" />
        </mxCell>
        <mxCell id="FAGZXTw5lbrIUs-HKUqR-42" value="前端&lt;br&gt;特征匹配" style="rounded=1;whiteSpace=wrap;html=1;" parent="1" vertex="1">
          <mxGeometry x="10" y="360" width="120" height="60" as="geometry" />
        </mxCell>
        <mxCell id="FAGZXTw5lbrIUs-HKUqR-44" value="" style="endArrow=classic;html=1;rounded=0;exitX=1;exitY=0.5;exitDx=0;exitDy=0;entryX=0;entryY=0.5;entryDx=0;entryDy=0;" parent="1" edge="1">
          <mxGeometry width="50" height="50" relative="1" as="geometry">
            <mxPoint x="130" y="169.9999999999999" as="sourcePoint" />
            <mxPoint x="200" y="200.0000000000001" as="targetPoint" />
          </mxGeometry>
        </mxCell>
        <mxCell id="FAGZXTw5lbrIUs-HKUqR-45" value="" style="endArrow=classic;html=1;rounded=0;exitX=1;exitY=0.5;exitDx=0;exitDy=0;entryX=0;entryY=0.5;entryDx=0;entryDy=0;" parent="1" target="FAGZXTw5lbrIUs-HKUqR-46" edge="1">
          <mxGeometry width="50" height="50" relative="1" as="geometry">
            <mxPoint x="130" y="169.9999999999999" as="sourcePoint" />
            <mxPoint x="200" y="140" as="targetPoint" />
          </mxGeometry>
        </mxCell>
        <mxCell id="FAGZXTw5lbrIUs-HKUqR-46" value="聚合成图片" style="rounded=1;whiteSpace=wrap;html=1;" parent="1" vertex="1">
          <mxGeometry x="200" y="120" width="80" height="40" as="geometry" />
        </mxCell>
        <mxCell id="FAGZXTw5lbrIUs-HKUqR-47" value="" style="endArrow=classic;html=1;rounded=0;exitX=1;exitY=0.5;exitDx=0;exitDy=0;entryX=0;entryY=0.5;entryDx=0;entryDy=0;" parent="1" edge="1">
          <mxGeometry width="50" height="50" relative="1" as="geometry">
            <mxPoint x="130" y="389.9999999999999" as="sourcePoint" />
            <mxPoint x="200" y="420.0000000000001" as="targetPoint" />
          </mxGeometry>
        </mxCell>
        <mxCell id="FAGZXTw5lbrIUs-HKUqR-48" value="" style="endArrow=classic;html=1;rounded=0;exitX=1;exitY=0.5;exitDx=0;exitDy=0;entryX=0;entryY=0.5;entryDx=0;entryDy=0;" parent="1" target="FAGZXTw5lbrIUs-HKUqR-49" edge="1">
          <mxGeometry width="50" height="50" relative="1" as="geometry">
            <mxPoint x="130" y="389.9999999999999" as="sourcePoint" />
            <mxPoint x="200" y="360" as="targetPoint" />
          </mxGeometry>
        </mxCell>
        <mxCell id="FAGZXTw5lbrIUs-HKUqR-49" value="聚合成图片" style="rounded=1;whiteSpace=wrap;html=1;" parent="1" vertex="1">
          <mxGeometry x="200" y="340" width="80" height="40" as="geometry" />
        </mxCell>
        <mxCell id="FAGZXTw5lbrIUs-HKUqR-56" style="edgeStyle=orthogonalEdgeStyle;rounded=0;orthogonalLoop=1;jettySize=auto;html=1;exitX=0.5;exitY=1;exitDx=0;exitDy=0;fontSize=11;" parent="1" source="FAGZXTw5lbrIUs-HKUqR-50" edge="1">
          <mxGeometry relative="1" as="geometry">
            <mxPoint x="290" y="470" as="targetPoint" />
            <Array as="points">
              <mxPoint x="240" y="470" />
              <mxPoint x="290" y="470" />
            </Array>
          </mxGeometry>
        </mxCell>
        <mxCell id="FAGZXTw5lbrIUs-HKUqR-50" value="直接处理" style="rounded=1;whiteSpace=wrap;html=1;" parent="1" vertex="1">
          <mxGeometry x="200" y="400" width="80" height="40" as="geometry" />
        </mxCell>
        <mxCell id="FAGZXTw5lbrIUs-HKUqR-51" value="" style="shape=curlyBracket;whiteSpace=wrap;html=1;rounded=1;labelPosition=left;verticalLabelPosition=middle;align=right;verticalAlign=middle;size=0.5;" parent="1" vertex="1">
          <mxGeometry x="280" y="302.82" width="40" height="114.37" as="geometry" />
        </mxCell>
        <mxCell id="FAGZXTw5lbrIUs-HKUqR-52" value="Fast+LK光流" style="rounded=0;whiteSpace=wrap;html=1;fontSize=11;" parent="1" vertex="1">
          <mxGeometry x="320" y="290" width="90" height="20" as="geometry" />
        </mxCell>
        <mxCell id="FAGZXTw5lbrIUs-HKUqR-53" value="EKLT" style="rounded=0;whiteSpace=wrap;html=1;fontSize=11;" parent="1" vertex="1">
          <mxGeometry x="320" y="330" width="90" height="20" as="geometry" />
        </mxCell>
        <mxCell id="FAGZXTw5lbrIUs-HKUqR-54" value="image-to-model" style="rounded=0;whiteSpace=wrap;html=1;fontSize=11;" parent="1" vertex="1">
          <mxGeometry x="320" y="370" width="90" height="20" as="geometry" />
        </mxCell>
        <mxCell id="FAGZXTw5lbrIUs-HKUqR-55" value="线特征" style="rounded=0;whiteSpace=wrap;html=1;fontSize=11;" parent="1" vertex="1">
          <mxGeometry x="320" y="410" width="90" height="20" as="geometry" />
        </mxCell>
        <mxCell id="FAGZXTw5lbrIUs-HKUqR-62" style="edgeStyle=orthogonalEdgeStyle;rounded=0;orthogonalLoop=1;jettySize=auto;html=1;exitX=1;exitY=0.5;exitDx=0;exitDy=0;fontSize=11;" parent="1" source="FAGZXTw5lbrIUs-HKUqR-61" edge="1">
          <mxGeometry relative="1" as="geometry">
            <mxPoint x="420" y="470" as="targetPoint" />
          </mxGeometry>
        </mxCell>
        <mxCell id="FAGZXTw5lbrIUs-HKUqR-61" value="根据状态估计投影" style="rounded=0;whiteSpace=wrap;html=1;fontSize=11;" parent="1" vertex="1">
          <mxGeometry x="290" y="460" width="100" height="20" as="geometry" />
        </mxCell>
        <mxCell id="FAGZXTw5lbrIUs-HKUqR-63" value="统计、细分、插值" style="rounded=0;whiteSpace=wrap;html=1;fontSize=11;" parent="1" vertex="1">
          <mxGeometry x="420" y="460" width="100" height="20" as="geometry" />
        </mxCell>
        <mxCell id="FAGZXTw5lbrIUs-HKUqR-64" value="建图" style="rounded=1;whiteSpace=wrap;html=1;" parent="1" vertex="1">
          <mxGeometry x="500" y="360" width="120" height="60" as="geometry" />
        </mxCell>
        <mxCell id="FAGZXTw5lbrIUs-HKUqR-65" value="" style="shape=curlyBracket;whiteSpace=wrap;html=1;rounded=1;labelPosition=left;verticalLabelPosition=middle;align=right;verticalAlign=middle;size=0.5;" parent="1" vertex="1">
          <mxGeometry x="620" y="332.82" width="40" height="114.37" as="geometry" />
        </mxCell>
        <mxCell id="FAGZXTw5lbrIUs-HKUqR-66" value="三角化" style="rounded=0;whiteSpace=wrap;html=1;fontSize=11;" parent="1" vertex="1">
          <mxGeometry x="660" y="320" width="90" height="20" as="geometry" />
        </mxCell>
        <mxCell id="FAGZXTw5lbrIUs-HKUqR-67" value="EMVS" style="rounded=0;whiteSpace=wrap;html=1;fontSize=11;" parent="1" vertex="1">
          <mxGeometry x="660" y="350" width="90" height="20" as="geometry" />
        </mxCell>
        <mxCell id="FAGZXTw5lbrIUs-HKUqR-68" value="稀疏重建" style="rounded=0;whiteSpace=wrap;html=1;fontSize=11;" parent="1" vertex="1">
          <mxGeometry x="660" y="380" width="90" height="20" as="geometry" />
        </mxCell>
        <mxCell id="FAGZXTw5lbrIUs-HKUqR-69" value="逆深度" style="rounded=0;whiteSpace=wrap;html=1;fontSize=11;" parent="1" vertex="1">
          <mxGeometry x="660" y="410" width="90" height="20" as="geometry" />
        </mxCell>
        <mxCell id="FAGZXTw5lbrIUs-HKUqR-70" value="双目" style="rounded=0;whiteSpace=wrap;html=1;fontSize=11;" parent="1" vertex="1">
          <mxGeometry x="660" y="440" width="90" height="20" as="geometry" />
        </mxCell>
        <mxCell id="FAGZXTw5lbrIUs-HKUqR-71" value="后端&lt;br&gt;位姿、路标优化" style="rounded=1;whiteSpace=wrap;html=1;" parent="1" vertex="1">
          <mxGeometry x="10" y="562" width="120" height="60" as="geometry" />
        </mxCell>
        <mxCell id="FAGZXTw5lbrIUs-HKUqR-72" value="" style="shape=curlyBracket;whiteSpace=wrap;html=1;rounded=1;labelPosition=left;verticalLabelPosition=middle;align=right;verticalAlign=middle;size=0.5;" parent="1" vertex="1">
          <mxGeometry x="130" y="564.81" width="40" height="54.37" as="geometry" />
        </mxCell>
        <mxCell id="FAGZXTw5lbrIUs-HKUqR-74" style="edgeStyle=orthogonalEdgeStyle;rounded=0;orthogonalLoop=1;jettySize=auto;html=1;exitX=1;exitY=0.5;exitDx=0;exitDy=0;fontSize=11;" parent="1" source="FAGZXTw5lbrIUs-HKUqR-73" edge="1">
          <mxGeometry relative="1" as="geometry">
            <mxPoint x="410" y="509.8333333333335" as="targetPoint" />
          </mxGeometry>
        </mxCell>
        <mxCell id="FAGZXTw5lbrIUs-HKUqR-73" value="PTAM" style="rounded=0;whiteSpace=wrap;html=1;fontSize=11;" parent="1" vertex="1">
          <mxGeometry x="300" y="500" width="90" height="20" as="geometry" />
        </mxCell>
        <mxCell id="FAGZXTw5lbrIUs-HKUqR-75" value="无后端，跟踪与建图交错进行" style="rounded=0;whiteSpace=wrap;html=1;fontSize=11;" parent="1" vertex="1">
          <mxGeometry x="410" y="500" width="270" height="20" as="geometry" />
        </mxCell>
        <mxCell id="FAGZXTw5lbrIUs-HKUqR-77" style="edgeStyle=orthogonalEdgeStyle;rounded=0;orthogonalLoop=1;jettySize=auto;html=1;exitX=1;exitY=0.5;exitDx=0;exitDy=0;fontSize=11;" parent="1" source="FAGZXTw5lbrIUs-HKUqR-76" edge="1">
          <mxGeometry relative="1" as="geometry">
            <mxPoint x="410" y="544.8333333333335" as="targetPoint" />
          </mxGeometry>
        </mxCell>
        <mxCell id="FAGZXTw5lbrIUs-HKUqR-76" value="BA" style="rounded=0;whiteSpace=wrap;html=1;fontSize=11;" parent="1" vertex="1">
          <mxGeometry x="300" y="535" width="90" height="20" as="geometry" />
        </mxCell>
        <mxCell id="FAGZXTw5lbrIUs-HKUqR-78" value="光度误差" style="rounded=0;whiteSpace=wrap;html=1;fontSize=11;" parent="1" vertex="1">
          <mxGeometry x="410" y="535" width="270" height="20" as="geometry" />
        </mxCell>
        <mxCell id="FAGZXTw5lbrIUs-HKUqR-80" style="edgeStyle=orthogonalEdgeStyle;rounded=0;orthogonalLoop=1;jettySize=auto;html=1;exitX=1;exitY=0.5;exitDx=0;exitDy=0;fontSize=11;entryX=0;entryY=0.5;entryDx=0;entryDy=0;" parent="1" source="FAGZXTw5lbrIUs-HKUqR-79" target="FAGZXTw5lbrIUs-HKUqR-81" edge="1">
          <mxGeometry relative="1" as="geometry">
            <mxPoint x="410" y="579.8333333333335" as="targetPoint" />
          </mxGeometry>
        </mxCell>
        <mxCell id="FAGZXTw5lbrIUs-HKUqR-79" value="优化" style="rounded=0;whiteSpace=wrap;html=1;fontSize=11;" parent="1" vertex="1">
          <mxGeometry x="300" y="575" width="90" height="20" as="geometry" />
        </mxCell>
        <mxCell id="FAGZXTw5lbrIUs-HKUqR-81" value="VIO优化框架" style="rounded=0;whiteSpace=wrap;html=1;fontSize=11;" parent="1" vertex="1">
          <mxGeometry x="410" y="575" width="270" height="20" as="geometry" />
        </mxCell>
        <mxCell id="FAGZXTw5lbrIUs-HKUqR-83" style="edgeStyle=orthogonalEdgeStyle;rounded=0;orthogonalLoop=1;jettySize=auto;html=1;exitX=1;exitY=0.5;exitDx=0;exitDy=0;fontSize=11;" parent="1" source="FAGZXTw5lbrIUs-HKUqR-82" edge="1">
          <mxGeometry relative="1" as="geometry">
            <mxPoint x="410" y="620" as="targetPoint" />
          </mxGeometry>
        </mxCell>
        <mxCell id="FAGZXTw5lbrIUs-HKUqR-82" value="位姿图优化" style="rounded=0;whiteSpace=wrap;html=1;fontSize=11;" parent="1" vertex="1">
          <mxGeometry x="300" y="610" width="90" height="20" as="geometry" />
        </mxCell>
        <mxCell id="FAGZXTw5lbrIUs-HKUqR-84" value="回环检测" style="rounded=0;whiteSpace=wrap;html=1;fontSize=11;" parent="1" vertex="1">
          <mxGeometry x="410" y="610" width="270" height="20" as="geometry" />
        </mxCell>
        <mxCell id="FAGZXTw5lbrIUs-HKUqR-85" value="EKF框架" style="rounded=0;whiteSpace=wrap;html=1;fontSize=11;" parent="1" vertex="1">
          <mxGeometry x="170" y="610" width="90" height="20" as="geometry" />
        </mxCell>
        <mxCell id="FAGZXTw5lbrIUs-HKUqR-86" value="优化框架" style="rounded=0;whiteSpace=wrap;html=1;fontSize=11;" parent="1" vertex="1">
          <mxGeometry x="170" y="555" width="90" height="20" as="geometry" />
        </mxCell>
        <mxCell id="FAGZXTw5lbrIUs-HKUqR-87" value="" style="shape=curlyBracket;whiteSpace=wrap;html=1;rounded=1;labelPosition=left;verticalLabelPosition=middle;align=right;verticalAlign=middle;size=0.5;" parent="1" vertex="1">
          <mxGeometry x="260" y="507.63" width="40" height="114.37" as="geometry" />
        </mxCell>
      </root>
    </mxGraphModel>
  </diagram>
</mxfile>
